<?xml version="1.0" encoding="UTF-8"?>
<svg width="512px" height="592px" viewBox="0 0 512 592" version="1.1" xmlns="http://www.w3.org/2000/svg" xmlns:xlink="http://www.w3.org/1999/xlink">
    <title>Solarflare</title>
    <g id="Page-1" stroke="none" stroke-width="1" fill="none" fill-rule="evenodd">
        <g id="Solarflare" fill-rule="nonzero">
            <polygon id="Path" fill="#673AB8" points="256 0 512 147.8 512 443.4 256 591.2 0 443.4 0 147.8"></polygon>
            <g id="cloudflare" transform="translate(69, 216)" fill="#FFFFFF">
                <path d="M250.269461,149.72484 C252.730045,143.382339 251.887568,136.272584 248.008265,130.642399 C244.04202,126.011902 238.347471,123.107368 232.179895,122.569058 L101.030532,121.101178 C100.2768,121.101178 99.5230681,120.367238 98.7693361,120.367238 C98.4134723,120.107348 98.2040372,119.699477 98.2040372,119.266328 C98.2040372,118.833179 98.4134723,118.425308 98.7693361,118.165418 C99.5230681,116.697538 100.2768,115.963598 101.784264,115.963598 L233.687359,114.495718 C250.737936,112.653174 265.437501,101.988158 272.127688,86.6059964 L279.665008,67.5235555 C279.665008,66.7896155 280.41874,66.0556755 279.665008,65.3217355 C271.244851,28.8015848 238.933221,2.17413981 200.552243,0.126296031 C162.171264,-1.92154775 127.065286,21.1087841 114.597707,56.5144549 C106.720923,51.0365705 97.1131196,48.437816 87.4633567,49.1750547 C69.2233612,51.1554431 54.8254793,65.1752572 52.7916863,82.9362963 C52.2898056,87.3501931 52.5445175,91.8146156 53.5454183,96.1472169 C23.7507017,96.9492219 0.0262919578,120.701407 0.0304486485,149.72484 C-0.0932433156,152.436735 0.160298605,155.152461 0.784180615,157.79818 C0.855819415,158.984116 1.8274594,159.930243 3.04537651,160 L244.993337,160 C246.500801,160 248.008265,159.26606 248.008265,157.79818 L250.269461,149.72484 Z" id="Path"></path>
                <path d="M302.107827,67 L298.324029,67 C297.567269,67 296.810509,67.7498387 296.05375,68.4996775 L290.756431,86.4958071 C288.285963,92.9757006 289.131825,100.239468 293.026711,105.991614 C297.008888,110.722418 302.726313,113.68987 308.918665,114.23984 L336.918774,115.739518 C337.675534,115.739518 338.432293,116.489356 339.189053,116.489356 C339.546346,116.754876 339.756623,117.171582 339.756623,117.614115 C339.756623,118.056647 339.546346,118.473353 339.189053,118.738873 C338.432293,120.23855 337.675534,120.988389 336.162014,120.988389 L307.405145,122.488066 C290.286074,124.370523 275.527461,135.266568 268.8104,150.981939 L267.296881,157.730486 C266.540121,158.480325 267.296881,159.980004 268.8104,159.980004 L368.702681,159.980004 C369.327943,160.068493 369.958761,159.860135 370.405374,159.417606 C370.851986,158.975079 371.062268,158.350028 370.972961,157.730486 C372.774649,151.377242 373.7911,144.830729 374,138.23468 C373.750386,98.9957566 341.708923,67.2473302 302.107827,67" id="Path" fill-opacity="0.75"></path>
            </g>
        </g>
    </g>
</svg>
