<?xml version="1.0" encoding="UTF-8"?>
<svg width="28px" height="32px" viewBox="0 0 28 32" version="1.1" xmlns="http://www.w3.org/2000/svg" xmlns:xlink="http://www.w3.org/1999/xlink">
    <title>preact</title>
    <g id="preact" stroke="none" fill="none" fill-rule="evenodd" stroke-width="1">
        <g id="cloudflare" transform="translate(0, 9)">
            <polygon id="Path" fill="#FFFFFF" fill-rule="nonzero" points="26 4.93700787 22.7058824 4.22047244 22.1176471 4 7 4.11023622 7 10.9448819 26 11"></polygon>
            <path d="M18.7702096,11.229363 C18.9547534,10.7536754 18.8915676,10.2204438 18.6006199,9.79817989 C18.3031515,9.45089263 17.8760603,9.23305259 17.4134921,9.19267936 L7.57728991,9.08258836 C7.52076001,9.08258836 7.46423011,9.02754286 7.40770021,9.02754286 C7.38101042,9.00805113 7.36530279,8.9774608 7.36530279,8.9449746 C7.36530279,8.9124884 7.38101042,8.88189807 7.40770021,8.86240635 C7.46423011,8.75231534 7.52076001,8.69726984 7.6338198,8.69726984 L17.5265519,8.58717883 C18.8053452,8.44898808 19.9078126,7.64911182 20.4095766,6.49544973 L20.9748756,5.06426666 C20.9748756,5.00922116 21.0314055,4.95417566 20.9748756,4.89913016 C20.3433638,2.16011886 17.9199916,0.163060486 15.0414182,0.00947220231 C12.1628448,-0.144116081 9.52989644,1.58315881 8.59482806,4.23858412 C8.00406926,3.82774279 7.28348397,3.6328362 6.55975175,3.6881291 C5.19175209,3.83665823 4.11191095,4.88814429 3.95937647,6.22022222 C3.92173542,6.55126448 3.94083881,6.88609617 4.01590637,7.21104127 C1.78130263,7.27119164 0.00197189684,9.05260554 0.00228364864,11.229363 C-0.00699324867,11.4327551 0.0120223954,11.6364346 0.0588135461,11.8348635 C0.0641864561,11.9238087 0.137059455,11.9947682 0.228403238,12 L18.3745003,12 C18.4875601,12 18.6006199,11.9449545 18.6006199,11.8348635 L18.7702096,11.229363 Z" id="Path" fill="#F48120" fill-rule="nonzero"></path>
            <path d="M22.6248843,5 L22.3419835,5 C22.2854033,5 22.2288231,5.05643947 22.172243,5.11287895 L21.7761818,6.46742634 C21.5914739,6.95516026 21.6547159,7.50189541 21.9459223,7.93485269 C22.2436552,8.29093466 22.6711262,8.51429127 23.1341058,8.55568691 L25.2275719,8.66856586 C25.2841521,8.66856586 25.3407322,8.72500533 25.3973124,8.72500533 C25.4240259,8.74499066 25.4397475,8.77635567 25.4397475,8.80966455 C25.4397475,8.84297343 25.4240259,8.87433843 25.3973124,8.89432376 C25.3407322,9.00720271 25.2841521,9.06364218 25.1709917,9.06364218 L23.0209454,9.17652113 C21.7410149,9.31821143 20.6375672,10.1383438 20.135357,11.3212212 L20.0221967,11.8291764 C19.9656165,11.8856159 20.0221967,11.9984949 20.135357,11.9984949 L27.6039388,11.9984949 C27.6506873,12.0051554 27.6978513,11.9894725 27.7312429,11.9561639 C27.7646345,11.9228554 27.7803565,11.8758086 27.7736793,11.8291764 C27.908385,11.3509752 27.9843813,10.8582269 28,10.3617501 C27.9813373,7.40828276 25.5857139,5.01861625 22.6248843,5" id="Path" fill="#FAAD3F" fill-rule="nonzero"></path>
        </g>
    </g>
</svg>